<?xml version="1.0" encoding="UTF-8"?> <svg xmlns="http://www.w3.org/2000/svg" width="73" height="47" viewBox="0 0 73 47" fill="none"><path d="M10.1461 21.0319C10.2246 20.8113 10.3666 20.7206 10.572 20.7596C10.7743 20.7907 10.8699 20.9217 10.8588 21.1526C10.5065 22.8563 10.344 24.5822 10.3714 26.3304C10.3701 26.5394 10.2646 26.666 10.0549 26.7103C9.83797 26.7119 9.70739 26.608 9.66317 26.3983C9.63033 24.5887 9.79131 22.7999 10.1461 21.0319ZM13.6534 19.7535C13.7629 19.5665 13.917 19.5073 14.1156 19.5761C14.3136 19.6905 14.3743 19.8485 14.2976 20.0502C13.7354 21.1363 13.0812 22.1716 12.335 23.1561C11.5894 24.095 10.6893 24.844 9.63465 25.4029C9.53984 25.4393 9.44717 25.4341 9.35667 25.3873C9.26616 25.3404 9.20422 25.2735 9.17086 25.1866C9.09806 24.997 9.16622 24.8439 9.37533 24.7274C10.3777 24.1976 11.2097 23.4838 11.8714 22.5861C12.541 21.6854 13.135 20.7412 13.6534 19.7535ZM9.94411 24.6858C9.75703 24.5763 9.69637 24.4183 9.76213 24.2117C9.87163 24.0247 10.0297 23.964 10.2362 24.0298C11.9391 24.5455 13.6399 24.5363 15.3386 24.0021C15.5671 23.9597 15.7193 24.0373 15.7951 24.2348C15.8789 24.4293 15.8131 24.5769 15.598 24.6777C13.7193 25.2628 11.8347 25.2655 9.94411 24.6858ZM15.9572 20.4058C16.0618 20.2297 16.2119 20.1721 16.4075 20.233C16.5837 20.3376 16.6413 20.4877 16.5804 20.6833C16.4166 21.1542 16.3793 21.6354 16.4683 22.127C16.5046 22.3397 16.5731 22.5537 16.6738 22.7688C16.7825 22.981 16.9431 23.1278 17.1557 23.2094C17.5786 23.3191 17.9848 23.2674 18.3745 23.0543C18.7611 22.8334 19.0715 22.5556 19.3056 22.221C19.808 21.4751 20.0018 20.6573 19.8869 19.7677C19.8313 19.3629 19.6313 19.0544 19.2869 18.8421C18.9449 18.6833 18.6006 18.684 18.2542 18.8442C17.8706 19.073 17.6285 19.4107 17.528 19.8573C17.4274 20.3038 17.3758 20.7361 17.3731 21.1542C17.3687 21.3553 17.2696 21.4749 17.0757 21.5131C16.8667 21.5117 16.7431 21.4141 16.7049 21.2203C16.7033 20.8855 16.7206 20.5525 16.7566 20.2213C16.8006 19.8872 16.8907 19.567 17.0271 19.2608C17.3027 18.6564 17.7554 18.2651 18.385 18.0868C18.9162 17.9827 19.4004 18.0869 19.8377 18.3995C20.2913 18.7784 20.5383 19.2683 20.5787 19.8693C20.666 21.0415 20.3332 22.0758 19.5804 22.9722C19.1766 23.4082 18.6915 23.7032 18.1251 23.8572C17.8522 23.9257 17.5745 23.9461 17.292 23.9186C17.0094 23.8911 16.7491 23.7916 16.511 23.6201C16.2857 23.4346 16.116 23.2051 16.002 22.9316C15.8849 22.6501 15.8079 22.3669 15.771 22.0819C15.7052 21.5089 15.7672 20.9502 15.9572 20.4058ZM21.4729 16.9559C21.5229 16.7554 21.6411 16.6738 21.8276 16.7109C22.019 16.7372 22.114 16.8548 22.1127 17.0639C21.8819 18.7299 21.8216 20.403 21.9317 22.0832C21.9115 22.2904 21.8108 22.4061 21.6297 22.4303C21.4456 22.4466 21.3314 22.3499 21.2872 22.1402C21.1747 20.4065 21.2366 18.6784 21.4729 16.9559ZM25.0777 15.6129C25.1228 15.4234 25.2435 15.3362 25.4398 15.3516C25.6323 15.4046 25.721 15.5292 25.7057 15.7254C25.6365 17.411 25.6758 19.0957 25.8236 20.7796C25.8143 20.9917 25.7176 21.1059 25.5335 21.1221C25.3494 21.1384 25.2328 21.0472 25.1837 20.8485C25.0305 19.1032 24.9952 17.358 25.0777 15.6129ZM25.7698 15.1841C25.9764 15.132 26.1131 15.1928 26.1799 15.3666C26.2102 15.4457 26.2059 15.5289 26.1669 15.6164C26.1359 15.7008 26.0809 15.7582 26.0018 15.7885C24.198 16.3087 22.5456 17.1289 21.0446 18.249C20.864 18.3455 20.7182 18.3199 20.6071 18.1721C20.493 18.0165 20.5131 17.8683 20.6676 17.7274C22.2099 16.5733 23.9107 15.7255 25.7698 15.1841ZM27.6788 14.5601C27.7446 14.3535 27.8747 14.2673 28.0691 14.3015C28.2605 14.3277 28.3531 14.4508 28.3469 14.6708C28.0754 16.3252 27.9743 17.9868 28.0437 19.6554C28.0187 19.8735 27.9101 19.9923 27.7181 20.0116C27.5261 20.0309 27.4119 19.9342 27.3756 19.7215C27.3008 17.9915 27.4019 16.271 27.6788 14.5601ZM28.0227 19.8131C27.8603 19.957 27.7014 19.9681 27.546 19.8465C27.3984 19.7218 27.3809 19.5699 27.4934 19.3907C29.1402 17.3987 30.6352 15.3064 31.9783 13.1136C32.0853 12.991 32.2178 12.9582 32.3757 13.0155C32.513 13.0897 32.5774 13.21 32.5687 13.3765C32.451 15.0536 32.4496 16.7267 32.5645 18.396C32.5583 18.616 32.4553 18.7371 32.2553 18.7595C32.0633 18.7788 31.9437 18.6797 31.8964 18.4621C31.7839 16.7284 31.7853 14.9963 31.9007 13.2658C32.0975 13.3534 32.2944 13.4411 32.4912 13.5287C31.1511 15.7293 29.6616 17.8241 28.0227 19.8131ZM33.8949 17.6814C33.8109 17.8405 33.6805 17.8905 33.5037 17.8315C33.3446 17.7475 33.2945 17.6172 33.3536 17.4404C33.5064 16.9647 33.6523 16.4826 33.7911 15.9942C33.9464 15.4541 34.0774 14.9097 34.1841 14.3611C34.3524 13.5712 34.5355 12.7847 34.7335 12.0016C34.7956 11.8327 34.8965 11.7532 35.0362 11.763C35.1839 11.7698 35.2841 11.8537 35.3369 12.0148C35.4635 12.628 35.5806 13.2403 35.6884 13.8516C35.7962 14.463 35.9291 15.0692 36.0873 15.6703C35.9148 15.6458 35.7462 15.6199 35.5815 15.5925C36.0906 14.9347 36.4912 14.2189 36.7833 13.4449C36.9483 13.0008 37.0944 12.5549 37.2217 12.1072C37.349 11.6594 37.4967 11.2174 37.6647 10.7813C37.7389 10.644 37.8489 10.5881 37.9947 10.6138C38.1375 10.6315 38.2204 10.7175 38.2434 10.8719C38.2558 11.3294 38.2802 11.7825 38.3163 12.2309C38.3695 12.7001 38.4345 13.1646 38.5114 13.6247C38.6118 14.3114 38.6776 15.0023 38.7087 15.6975C38.6934 15.8938 38.5991 16.0025 38.4259 16.0236C38.2497 16.0369 38.1465 15.9451 38.1162 15.7482C38.0849 15.2888 38.0442 14.8284 37.9941 14.3672C37.9409 13.8981 37.8744 13.4295 37.7945 12.9616C37.708 12.2876 37.6577 11.6134 37.6436 10.9389C37.835 10.9652 38.0279 10.9954 38.2223 11.0295C38.0494 11.4767 37.8969 11.9296 37.7648 12.3882C37.6326 12.8469 37.4841 13.2983 37.3191 13.7424C37.0014 14.5443 36.5792 15.2866 36.0525 15.9692C35.9759 16.053 35.8811 16.0894 35.7681 16.0784C35.652 16.0595 35.5728 15.9947 35.5303 15.8841C35.363 15.2593 35.2209 14.6294 35.1041 13.9943C34.9842 13.3514 34.8618 12.7139 34.7371 12.0818C34.9382 12.0862 35.1354 12.0921 35.3286 12.0995C35.194 12.6226 35.0688 13.1466 34.953 13.6716C34.8335 14.2342 34.7101 14.7983 34.5827 15.3639C34.3847 16.1471 34.1554 16.9195 33.8949 17.6814ZM46.4899 7.37996C46.5557 7.1734 46.6858 7.0872 46.8802 7.12135C47.0795 7.14458 47.1706 7.26373 47.1534 7.47883C46.8126 9.14174 46.6548 10.8206 46.6798 12.5153C46.6784 12.7243 46.5769 12.8494 46.3751 12.8906C46.174 12.8862 46.0528 12.7832 46.0116 12.5814C45.9842 10.8332 46.1436 9.09937 46.4899 7.37996ZM50.5925 5.8459C50.6425 5.64541 50.7696 5.55131 50.9737 5.5636C51.1693 5.62449 51.265 5.7555 51.2606 5.95663C51.0996 7.68649 51.066 9.41735 51.1596 11.1492C51.1455 11.3722 51.0424 11.4934 50.8504 11.5127C50.6554 11.5241 50.5357 11.425 50.4915 11.2153C50.3924 9.42208 50.4261 7.63228 50.5925 5.8459ZM51.4579 8.02944C51.6724 7.97429 51.8161 8.04153 51.8889 8.23116C51.9162 8.30227 51.9119 8.38552 51.876 8.48089C51.848 8.57324 51.789 8.63214 51.699 8.6576C49.6266 9.16302 47.695 9.9997 45.9041 11.1676C45.7078 11.2702 45.5525 11.2437 45.4384 11.088C45.3212 10.9245 45.3438 10.7708 45.5061 10.6269C47.3384 9.42494 49.3223 8.55913 51.4579 8.02944ZM57.1008 6.61124C57.0272 6.82083 56.8828 6.91705 56.6677 6.89989C56.4575 6.87181 56.3594 6.74626 56.3735 6.52326C56.4381 6.28997 56.4917 6.05181 56.5344 5.80878C56.582 5.55481 56.5302 5.32539 56.379 5.12052C56.0772 4.78307 55.6702 4.66735 55.1579 4.77336C54.6705 4.897 54.2519 5.15285 53.9023 5.5409C53.5526 5.92896 53.3096 6.33501 53.1732 6.75906C53.0405 7.14544 52.9877 7.55101 53.0147 7.97577C53.0467 8.3896 53.233 8.7215 53.5737 8.97146C53.9388 9.16676 54.3286 9.16671 54.7431 8.97132C55.1547 8.76803 55.466 8.48081 55.6771 8.10968C55.89 7.71971 56.0583 7.31968 56.1819 6.9096C56.3134 6.49649 56.4911 6.09738 56.715 5.71228C56.8591 5.52096 57.0266 5.46122 57.2173 5.53305C57.416 5.60184 57.4706 5.74407 57.3811 5.95972C57.3573 6.08671 57.3724 6.2441 57.4264 6.4319C57.4578 6.65553 57.5011 6.87462 57.5563 7.08915C57.6605 7.50242 57.9399 7.75781 58.3943 7.85533C58.5832 7.946 58.6393 8.09217 58.5627 8.29386C58.4422 8.47608 58.2723 8.54129 58.053 8.48949C57.4315 8.31105 57.0289 7.93526 56.8451 7.36213C56.7706 7.07345 56.7118 6.7787 56.6689 6.47788C56.5876 6.21897 56.603 5.96377 56.715 5.71228C56.9355 5.79081 57.1575 5.87329 57.3811 5.95972C57.1067 6.47301 56.8815 7.0082 56.7056 7.56529C56.5296 8.12239 56.2184 8.62258 55.7721 9.06587C55.3119 9.49639 54.7694 9.73636 54.1447 9.78578C53.5079 9.80359 53.0158 9.58452 52.6685 9.12856C52.3589 8.67626 52.2198 8.17213 52.2512 7.61615C52.2904 7.05714 52.4463 6.53042 52.7189 6.03597C53.0079 5.48988 53.4247 5.0171 53.9694 4.61763C54.519 4.20722 55.1283 4.0232 55.7973 4.06556C56.428 4.14983 56.8844 4.4415 57.1667 4.94056C57.2856 5.20314 57.3234 5.47873 57.28 5.76734C57.2337 6.04804 57.1739 6.32934 57.1008 6.61124ZM6.07232 34.6502C6.12228 34.4497 6.24052 34.3681 6.42705 34.4053C6.61844 34.4315 6.71346 34.5492 6.7121 34.7582C6.48132 36.4242 6.42098 38.0973 6.53108 39.7775C6.51089 39.9847 6.41025 40.1004 6.22916 40.1246C6.04503 40.1409 5.93086 40.0442 5.88663 39.8345C5.77414 38.1008 5.83604 36.3727 6.07232 34.6502ZM9.67716 33.3072C9.72225 33.1177 9.84292 33.0306 10.0392 33.0459C10.2318 33.0989 10.3204 33.2235 10.3051 33.4198C10.2359 35.1053 10.2752 36.7901 10.423 38.4739C10.4137 38.686 10.3171 38.8002 10.1329 38.8165C9.9488 38.8328 9.83219 38.7415 9.78311 38.5428C9.62991 36.7975 9.59459 35.0524 9.67716 33.3072ZM10.3692 32.8784C10.5759 32.8263 10.7126 32.8871 10.7793 33.061C10.8096 33.14 10.8053 33.2232 10.7664 33.3107C10.7353 33.3951 10.6803 33.4525 10.6013 33.4829C8.79744 34.003 7.14501 34.8232 5.644 35.9433C5.46346 36.0398 5.31764 36.0142 5.20654 35.8665C5.09241 35.7108 5.11255 35.5626 5.26699 35.4217C6.80935 34.2676 8.5101 33.4198 10.3692 32.8784ZM11.256 33.0275C11.2009 32.813 11.2602 32.6724 11.434 32.6057C11.513 32.5753 11.5963 32.5796 11.6838 32.6186C11.7761 32.6466 11.835 32.7056 11.8605 32.7955C12.3115 34.372 13.2207 35.6186 14.5879 36.5352C14.7306 36.6708 14.7481 36.8228 14.6404 36.991C14.5018 37.1258 14.3499 37.1433 14.1847 37.0436C12.7178 36.0564 11.7416 34.7177 11.256 33.0275ZM15.1948 31.0668C15.2448 30.8663 15.363 30.7847 15.5496 30.8219C15.741 30.8481 15.8414 30.9682 15.851 31.1821C15.7397 32.2855 15.5758 33.3819 15.3594 34.4713C14.9711 36.3881 14.4035 38.2514 13.6568 40.0611C12.9167 41.841 12.0096 43.54 10.9354 45.1581C10.7968 45.2929 10.6434 45.3065 10.4751 45.1988C10.3403 45.0602 10.3228 44.9083 10.4225 44.743C11.0101 43.8648 11.5479 42.9512 12.0358 42.0024C12.9034 40.3186 13.5991 38.5647 14.1229 36.7409C14.6613 34.8843 15.0186 32.9929 15.1948 31.0668ZM18.5352 29.9205C18.5882 29.728 18.7025 29.6478 18.8781 29.6801C19.0616 29.7094 19.1496 29.8207 19.1422 30.0139C18.8798 31.6921 18.7879 33.3773 18.8664 35.0697C18.851 35.2659 18.7528 35.3761 18.5717 35.4003C18.3955 35.4136 18.2883 35.3233 18.2502 35.1294C18.1693 33.3836 18.2643 31.6473 18.5352 29.9205ZM21.3151 28.7311C21.5168 28.6899 21.6496 28.7523 21.7133 28.9182C21.7406 28.9893 21.7387 29.0671 21.7076 29.1515C21.6736 29.2281 21.617 29.2815 21.538 29.3118C19.6552 29.8623 17.9237 30.7128 16.3437 31.8633C16.1632 31.9598 16.0188 31.9381 15.9108 31.7983C15.8076 31.6475 15.8292 31.5032 15.9758 31.3654C17.605 30.1779 19.3848 29.2998 21.3151 28.7311ZM22.0152 32.7867C21.9313 32.8279 21.8441 32.8251 21.7536 32.7783C21.6631 32.7314 21.6026 32.6685 21.5723 32.5895C21.5026 32.4078 21.5698 32.2641 21.774 32.1585C22.3375 31.8788 22.8928 31.5659 23.4399 31.2199C23.987 30.8739 24.4777 30.4634 24.9118 29.9885C25.301 29.5853 25.5896 29.1209 25.7777 28.5955C25.8642 28.3719 25.864 28.1589 25.7772 27.9565C25.7171 27.8708 25.6297 27.8319 25.5148 27.8397C25.4048 27.8366 25.3049 27.8477 25.2149 27.8732C24.6406 28.0302 24.1704 28.3286 23.8043 28.7683C23.4382 29.208 23.2267 29.7198 23.1698 30.3037C23.1275 30.8548 23.2429 31.368 23.5161 31.8434C23.6466 32.0652 23.8324 32.2069 24.0736 32.2685C24.2899 32.3124 24.5053 32.3067 24.7198 32.2516C25.214 32.0982 25.6304 31.825 25.9691 31.4321C26.3169 31.0629 26.6095 30.6559 26.8467 30.2113C26.9483 30.0272 27.0985 29.9696 27.2971 30.0384C27.4733 30.143 27.5309 30.2932 27.47 30.4888C27.1548 31.1084 26.7209 31.6784 26.1682 32.1988C25.6234 32.7161 24.984 32.9752 24.25 32.9759C23.7444 32.9342 23.3511 32.7362 23.07 32.3818C22.7968 32.0243 22.6212 31.6022 22.5431 31.1154C22.465 30.6286 22.4714 30.1729 22.5622 29.7482C22.731 29.0307 23.0939 28.429 23.6508 27.9433C23.9086 27.7174 24.2083 27.5298 24.5499 27.3806C24.8963 27.2204 25.2439 27.1459 25.5927 27.157C25.9773 27.1907 26.2552 27.3832 26.4263 27.7345C26.5489 28.0773 26.5511 28.4255 26.4329 28.7791C26.2071 29.4188 25.8573 29.9837 25.3836 30.4737C24.913 30.9717 24.3859 31.4052 23.8023 31.7743C23.2187 32.1434 22.623 32.4808 22.0152 32.7867ZM28.8628 26.1465C28.8702 25.9533 28.9669 25.8391 29.1529 25.804C29.3431 25.8035 29.4558 25.8963 29.4909 26.0822C29.4861 27.7703 29.4209 29.4543 29.2952 31.1344C29.2502 31.3239 29.1295 31.4111 28.9332 31.3957C28.7516 31.3476 28.666 31.2309 28.6764 31.0456C28.8014 29.4111 28.8636 27.7781 28.8628 26.1465ZM28.7344 31.6217C28.6554 31.652 28.5761 31.6462 28.4965 31.6042C28.4169 31.5622 28.3635 31.5057 28.3362 31.4345C28.2725 31.2686 28.3294 31.1334 28.5069 31.029C30.5687 30.0472 32.6699 29.1681 34.8105 28.3917C34.94 28.3511 35.0427 28.3706 35.1186 28.4503C35.2024 28.5269 35.2388 28.6217 35.2278 28.7347C35.2246 28.8447 35.1614 28.9279 35.038 28.9843C32.8943 29.7528 30.7931 30.6319 28.7344 31.6217ZM34.2465 23.8759C34.254 23.6827 34.3507 23.5685 34.5366 23.5334C34.7268 23.5329 34.8395 23.6257 34.8746 23.8116C34.9258 25.4329 34.9448 27.0529 34.9316 28.6716C34.9321 28.8618 34.8393 28.9745 34.6534 29.0096C34.4632 29.0101 34.3505 28.9173 34.3154 28.7314C34.3177 27.1078 34.2947 25.4893 34.2465 23.8759ZM31.6283 24.6362C31.6764 24.4546 31.7986 24.3714 31.9949 24.3867C32.1765 24.4348 32.2621 24.5516 32.2517 24.7369C32.2382 24.9143 32.2247 25.0917 32.2112 25.2692C32.2026 25.4356 32.1983 25.5778 32.1982 25.6957C32.1815 27.1164 32.1459 28.5352 32.0915 29.9522C32.0434 30.1339 31.9227 30.221 31.7295 30.2136C31.5478 30.1654 31.4607 30.0448 31.4681 29.8515C31.5019 29.349 31.5262 28.8456 31.5411 28.3413C31.5395 27.109 31.5686 25.874 31.6283 24.6362ZM36.2377 27.3272C36.1538 27.3684 36.0666 27.3656 35.9761 27.3188C35.8856 27.2719 35.8252 27.209 35.7948 27.13C35.7251 26.9483 35.7923 26.8046 35.9965 26.699C36.56 26.4192 37.1153 26.1064 37.6624 25.7604C38.2095 25.4144 38.7002 25.0039 39.1343 24.529C39.5235 24.1258 39.8121 23.6614 40.0002 23.1359C40.0867 22.9124 40.0865 22.6994 39.9997 22.497C39.9396 22.4113 39.8522 22.3723 39.7373 22.3802C39.6273 22.3771 39.5274 22.3882 39.4374 22.4137C38.8631 22.5707 38.3929 22.869 38.0268 23.3087C37.6607 23.7484 37.4492 24.2602 37.3923 24.8442C37.35 25.3953 37.4654 25.9085 37.7386 26.3839C37.8691 26.6057 38.0549 26.7474 38.2961 26.809C38.5124 26.8529 38.7278 26.8472 38.9424 26.7921C39.4365 26.6387 39.8529 26.3655 40.1916 25.9726C40.5394 25.6033 40.832 25.1964 41.0692 24.7518C41.1708 24.5677 41.321 24.5101 41.5196 24.5789C41.6958 24.6835 41.7534 24.8336 41.6925 25.0293C41.3773 25.6489 40.9434 26.2189 40.3907 26.7392C39.8459 27.2566 39.2065 27.5156 38.4725 27.5164C37.9669 27.4747 37.5736 27.2767 37.2925 26.9222C37.0193 26.5648 36.8437 26.1426 36.7656 25.6559C36.6875 25.1691 36.6939 24.7134 36.7847 24.2887C36.9535 23.5712 37.3164 22.9695 37.8733 22.4838C38.1311 22.2579 38.4308 22.0703 38.7724 21.9211C39.1188 21.7609 39.4665 21.6864 39.8152 21.6975C40.1999 21.7312 40.4777 21.9237 40.6489 22.275C40.7714 22.6178 40.7736 22.966 40.6555 23.3196C40.4296 23.9593 40.0798 24.5242 39.6062 25.0142C39.1355 25.5122 38.6084 25.9457 38.0248 26.3148C37.4412 26.6838 36.8455 27.0213 36.2377 27.3272ZM46.2584 20.3801C46.3117 20.6135 46.2475 20.765 46.0658 20.8348C45.9867 20.8651 45.8995 20.8623 45.8042 20.8264C45.7088 20.7905 45.6469 20.7236 45.6184 20.6258C45.5153 20.2393 45.2715 20.0292 44.8869 19.9955C44.5563 20.0317 44.2581 20.1643 43.9924 20.3932C43.4513 20.8729 43.0894 21.4651 42.9066 22.1699C42.6746 22.9117 42.6769 23.6496 42.9134 24.3838C43.0238 24.695 43.2266 24.9163 43.5218 25.0478C43.8347 25.1543 44.1476 25.143 44.4607 25.0138C44.8241 24.8742 45.1117 24.6551 45.3233 24.3562C45.532 24.0495 45.6625 23.7048 45.715 23.322C45.7699 23.1106 45.8945 23.0219 46.0889 23.0561C46.2912 23.0872 46.3893 23.2127 46.3831 23.4327C46.2994 24.0178 46.077 24.5247 45.7158 24.9535C45.3594 25.3713 44.892 25.6414 44.3134 25.7638C43.8357 25.8656 43.3889 25.7878 42.9728 25.5305C42.5883 25.2611 42.3349 24.896 42.2124 24.4353C41.9682 23.4684 42.0247 22.5175 42.382 21.5825C42.6931 20.6925 43.252 20.0111 44.0586 19.5383C44.4294 19.3234 44.8272 19.2614 45.2519 19.3522C45.7683 19.5166 46.1038 19.8593 46.2584 20.3801ZM49.1136 18.1826C49.1666 17.99 49.2809 17.9099 49.4565 17.9422C49.64 17.9715 49.728 18.0827 49.7206 18.276C49.4582 19.9541 49.3663 21.6394 49.4448 23.3317C49.4294 23.528 49.3312 23.6382 49.1501 23.6624C48.9739 23.6756 48.8667 23.5853 48.8286 23.3915C48.7477 21.6456 48.8427 19.9094 49.1136 18.1826ZM51.8935 16.9931C52.0952 16.9519 52.228 17.0143 52.2917 17.1802C52.319 17.2514 52.3171 17.3291 52.286 17.4136C52.252 17.4901 52.1954 17.5435 52.1164 17.5739C50.2336 18.1244 48.5021 18.9749 46.9221 20.1253C46.7416 20.2218 46.5973 20.2002 46.4892 20.0603C46.386 19.9096 46.4076 19.7653 46.5542 19.6274C48.1835 18.4399 49.9632 17.5618 51.8935 16.9931ZM53.5432 17.0398C53.7365 16.9293 53.9091 16.9537 54.0609 17.113C54.1713 17.3063 54.1469 17.4789 53.9876 17.6307C53.2514 18.1218 52.9496 18.7997 53.0821 19.6645C53.1742 20.0462 53.3721 20.3374 53.6758 20.5381C53.9844 20.7279 54.3325 20.7846 54.7203 20.7083C55.1287 20.615 55.4475 20.4065 55.6768 20.0828C55.914 19.756 56.0519 19.3948 56.0904 18.9993C56.1338 18.5928 56.0709 18.2045 55.9016 17.8343C55.7298 17.5285 55.4656 17.3716 55.1089 17.3635C54.9345 17.3579 54.7598 17.3751 54.5848 17.4151C54.3872 17.4909 54.1797 17.5524 53.9621 17.5997C53.7464 17.6281 53.5416 17.6025 53.3478 17.5227C53.1541 17.443 52.9627 17.3578 52.7738 17.2671C52.6474 17.1978 52.5734 17.0993 52.5516 16.9717C52.5347 16.8331 52.5858 16.7183 52.7049 16.6272C53.3378 16.2211 53.939 15.7682 54.5087 15.2685C55.0589 14.8125 55.5518 14.3015 55.9872 13.7355C56.6714 12.802 56.9477 11.7622 56.8159 10.6161C56.79 10.3359 56.723 10.067 56.615 9.80927C56.521 9.56433 56.3941 9.36372 56.2344 9.20745C56.1986 9.18495 56.1618 9.17186 56.1242 9.16819C56.0707 9.17058 56.0187 9.17693 55.9683 9.18723C55.7914 9.24605 55.6267 9.33649 55.4741 9.45852C54.6479 10.093 54.0409 10.8971 53.6532 11.8709C53.4226 12.4037 53.266 12.976 53.1836 13.5878C53.1012 14.1997 53.1929 14.7809 53.4586 15.3316C53.495 15.4264 53.4913 15.5231 53.4475 15.6215C53.4007 15.712 53.3338 15.7739 53.2469 15.8073C53.0493 15.8831 52.8908 15.8125 52.7712 15.5955C52.4296 14.8473 52.3384 14.0664 52.4975 13.2528C52.6244 12.497 52.8561 11.778 53.1925 11.0959C53.5028 10.4872 53.8963 9.94178 54.3731 9.45962C54.7081 9.10437 55.0862 8.81416 55.5075 8.589C56.0266 8.33534 56.4844 8.41798 56.8809 8.83691C57.2932 9.36765 57.5212 9.97363 57.5652 10.6548C57.6748 12.027 57.3064 13.2517 56.4599 14.3292C55.9898 14.8994 55.4772 15.418 54.9221 15.8849C54.3573 16.3737 53.7624 16.8197 53.1375 17.2227C53.1121 17.0149 53.0907 16.8055 53.0732 16.5947C53.2961 16.7267 53.5282 16.8234 53.7694 16.885C53.8951 16.882 54.0158 16.8538 54.1313 16.8004C54.2577 16.7519 54.3887 16.7152 54.5242 16.6904C55.0651 16.5644 55.5694 16.6382 56.0371 16.912C56.2691 17.0677 56.4431 17.2729 56.5589 17.5276C56.6797 17.7713 56.761 18.0302 56.8027 18.3043C56.882 18.8178 56.8349 19.3209 56.6614 19.8136C56.4702 20.3312 56.1525 20.7433 55.7081 21.0498C55.2637 21.3564 54.7674 21.4925 54.2194 21.4581C53.681 21.4019 53.24 21.1859 52.8963 20.8101C52.5526 20.4344 52.3609 19.9821 52.3212 19.4535C52.2884 18.4235 52.6958 17.6189 53.5432 17.0398ZM58.2407 14.6111C58.3065 14.4045 58.4365 14.3183 58.631 14.3525C58.8224 14.3787 58.915 14.5018 58.9087 14.7218C58.6372 16.3762 58.5362 18.0378 58.6056 19.7064C58.5805 19.9245 58.472 20.0433 58.28 20.0626C58.0879 20.0819 57.9738 19.9852 57.9374 19.7725C57.8626 18.0425 57.9637 16.322 58.2407 14.6111ZM58.5845 19.8641C58.4222 20.008 58.2633 20.0191 58.1078 19.8975C57.9602 19.7728 57.9427 19.6209 58.0552 19.4417C59.7021 17.4497 61.197 15.3574 62.5401 13.1646C62.6472 13.042 62.7797 13.0092 62.9376 13.0665C63.0749 13.1407 63.1392 13.261 63.1306 13.4275C63.0128 15.1045 63.0114 16.7777 63.1264 18.447C63.1202 18.6669 63.0171 18.7881 62.8172 18.8105C62.6251 18.8298 62.5055 18.7307 62.4582 18.5131C62.3458 16.7794 62.3472 15.0473 62.4626 13.3168C62.6594 13.4044 62.8562 13.4921 63.053 13.5797C61.7129 15.7803 60.2234 17.8751 58.5845 19.8641ZM64.0427 16.6538C63.9588 16.6951 63.8716 16.6923 63.7811 16.6454C63.6906 16.5986 63.6302 16.5357 63.5998 16.4566C63.5301 16.2749 63.5973 16.1312 63.8016 16.0257C64.365 15.7459 64.9203 15.433 65.4674 15.087C66.0145 14.741 66.5052 14.3306 66.9394 13.8557C67.3285 13.4524 67.6171 12.9881 67.8053 12.4626C67.8917 12.239 67.8915 12.0261 67.8048 11.8237C67.7447 11.7379 67.6572 11.699 67.5423 11.7068C67.4323 11.7037 67.3324 11.7149 67.2424 11.7403C66.6681 11.8974 66.1979 12.1957 65.8318 12.6354C65.4657 13.0751 65.2542 13.5869 65.1973 14.1708C65.155 14.7219 65.2705 15.2352 65.5436 15.7105C65.6741 15.9324 65.8599 16.0741 66.1011 16.1356C66.3174 16.1795 66.5328 16.1739 66.7474 16.1187C67.2415 15.9653 67.6579 15.6921 67.9966 15.2992C68.3444 14.93 68.637 14.5231 68.8743 14.0784C68.9759 13.8944 69.126 13.8367 69.3246 13.9055C69.5008 14.0102 69.5584 14.1603 69.4975 14.3559C69.1824 14.9755 68.7484 15.5455 68.1957 16.0659C67.6509 16.5833 67.0115 16.8423 66.2775 16.843C65.772 16.8014 65.3786 16.6033 65.0975 16.2489C64.8243 15.8914 64.6487 15.4693 64.5706 14.9825C64.4925 14.4957 64.4989 14.04 64.5897 13.6153C64.7585 12.8978 65.1214 12.2962 65.6783 11.8104C65.9361 11.5845 66.2358 11.397 66.5774 11.2477C66.9238 11.0875 67.2715 11.013 67.6203 11.0242C68.0049 11.0578 68.2827 11.2504 68.4539 11.6017C68.5764 11.9445 68.5786 12.2927 68.4605 12.6462C68.2346 13.2859 67.8849 13.8508 67.4112 14.3409C66.9405 14.8388 66.4134 15.2724 65.8298 15.6414C65.2463 16.0105 64.6505 16.348 64.0427 16.6538Z" fill="#C2255B"></path></svg> 